<mxfile host="app.diagrams.net" modified="2023-09-17T11:34:35.853Z" agent="Mozilla/5.0 (Windows NT 10.0; Win64; x64) AppleWebKit/537.36 (KHTML, like Gecko) Chrome/116.0.0.0 Safari/537.36" etag="JXXAziJ9ufRBX5R0nLmN" version="21.7.5" type="device">
  <diagram name="Страница 1" id="peiVjQ6xKM0UFsxWsOr3">
    <mxGraphModel dx="1050" dy="542" grid="1" gridSize="10" guides="1" tooltips="1" connect="1" arrows="1" fold="1" page="1" pageScale="1" pageWidth="827" pageHeight="1169" math="0" shadow="0">
      <root>
        <mxCell id="0" />
        <mxCell id="1" parent="0" />
        <mxCell id="1JTkHmqc5n5id6cBLUgi-10" style="edgeStyle=orthogonalEdgeStyle;rounded=0;orthogonalLoop=1;jettySize=auto;html=1;exitX=0.5;exitY=1;exitDx=0;exitDy=0;entryX=0.5;entryY=0;entryDx=0;entryDy=0;" parent="1" edge="1">
          <mxGeometry relative="1" as="geometry">
            <mxPoint x="470" y="395" as="sourcePoint" />
          </mxGeometry>
        </mxCell>
        <mxCell id="UrdU0xNyHuRj9MzuBO23-1" value="Підліток&lt;br&gt;" style="shape=umlActor;verticalLabelPosition=bottom;verticalAlign=top;html=1;outlineConnect=0;" vertex="1" parent="1">
          <mxGeometry x="130" y="190" width="30" height="60" as="geometry" />
        </mxCell>
        <mxCell id="UrdU0xNyHuRj9MzuBO23-8" value="" style="rounded=0;whiteSpace=wrap;html=1;" vertex="1" parent="1">
          <mxGeometry x="245" y="65" width="230" height="360" as="geometry" />
        </mxCell>
        <mxCell id="UrdU0xNyHuRj9MzuBO23-2" value="Отримати список&lt;br&gt;товарів" style="ellipse;whiteSpace=wrap;html=1;" vertex="1" parent="1">
          <mxGeometry x="290" y="80" width="140" height="50" as="geometry" />
        </mxCell>
        <mxCell id="UrdU0xNyHuRj9MzuBO23-3" value="Створити замовлення" style="ellipse;whiteSpace=wrap;html=1;" vertex="1" parent="1">
          <mxGeometry x="290" y="150" width="140" height="50" as="geometry" />
        </mxCell>
        <mxCell id="UrdU0xNyHuRj9MzuBO23-4" value="Об&#39;єднати замовлення" style="ellipse;whiteSpace=wrap;html=1;" vertex="1" parent="1">
          <mxGeometry x="290" y="220" width="140" height="50" as="geometry" />
        </mxCell>
        <mxCell id="UrdU0xNyHuRj9MzuBO23-5" value="Оплатити замовлення" style="ellipse;whiteSpace=wrap;html=1;" vertex="1" parent="1">
          <mxGeometry x="290" y="290" width="140" height="50" as="geometry" />
        </mxCell>
        <mxCell id="UrdU0xNyHuRj9MzuBO23-6" value="Сповістити про&lt;br&gt;успішність замовлення" style="ellipse;whiteSpace=wrap;html=1;" vertex="1" parent="1">
          <mxGeometry x="280" y="360" width="160" height="50" as="geometry" />
        </mxCell>
        <mxCell id="UrdU0xNyHuRj9MzuBO23-10" value="" style="endArrow=none;html=1;rounded=0;entryX=0;entryY=0.5;entryDx=0;entryDy=0;" edge="1" parent="1" source="UrdU0xNyHuRj9MzuBO23-1" target="UrdU0xNyHuRj9MzuBO23-2">
          <mxGeometry width="50" height="50" relative="1" as="geometry">
            <mxPoint x="390" y="320" as="sourcePoint" />
            <mxPoint x="440" y="270" as="targetPoint" />
          </mxGeometry>
        </mxCell>
        <mxCell id="UrdU0xNyHuRj9MzuBO23-12" value="" style="endArrow=none;html=1;rounded=0;entryX=0;entryY=0.5;entryDx=0;entryDy=0;" edge="1" parent="1" source="UrdU0xNyHuRj9MzuBO23-1" target="UrdU0xNyHuRj9MzuBO23-3">
          <mxGeometry width="50" height="50" relative="1" as="geometry">
            <mxPoint x="390" y="320" as="sourcePoint" />
            <mxPoint x="440" y="270" as="targetPoint" />
          </mxGeometry>
        </mxCell>
        <mxCell id="UrdU0xNyHuRj9MzuBO23-13" value="" style="endArrow=none;html=1;rounded=0;entryX=0;entryY=0.5;entryDx=0;entryDy=0;" edge="1" parent="1" source="UrdU0xNyHuRj9MzuBO23-1" target="UrdU0xNyHuRj9MzuBO23-4">
          <mxGeometry width="50" height="50" relative="1" as="geometry">
            <mxPoint x="390" y="320" as="sourcePoint" />
            <mxPoint x="440" y="270" as="targetPoint" />
          </mxGeometry>
        </mxCell>
        <mxCell id="UrdU0xNyHuRj9MzuBO23-14" value="" style="endArrow=none;html=1;rounded=0;entryX=0;entryY=0.5;entryDx=0;entryDy=0;" edge="1" parent="1" source="UrdU0xNyHuRj9MzuBO23-1" target="UrdU0xNyHuRj9MzuBO23-5">
          <mxGeometry width="50" height="50" relative="1" as="geometry">
            <mxPoint x="390" y="320" as="sourcePoint" />
            <mxPoint x="440" y="270" as="targetPoint" />
          </mxGeometry>
        </mxCell>
        <mxCell id="UrdU0xNyHuRj9MzuBO23-15" value="Сервіс E-pay&lt;br&gt;&amp;nbsp;" style="shape=umlActor;verticalLabelPosition=bottom;verticalAlign=top;html=1;outlineConnect=0;" vertex="1" parent="1">
          <mxGeometry x="570" y="250" width="30" height="60" as="geometry" />
        </mxCell>
        <mxCell id="UrdU0xNyHuRj9MzuBO23-18" value="Оператор" style="shape=umlActor;verticalLabelPosition=bottom;verticalAlign=top;html=1;outlineConnect=0;" vertex="1" parent="1">
          <mxGeometry x="550" y="365" width="30" height="60" as="geometry" />
        </mxCell>
        <mxCell id="UrdU0xNyHuRj9MzuBO23-19" value="" style="endArrow=none;html=1;rounded=0;exitX=1;exitY=0.5;exitDx=0;exitDy=0;" edge="1" parent="1" source="UrdU0xNyHuRj9MzuBO23-6" target="UrdU0xNyHuRj9MzuBO23-18">
          <mxGeometry width="50" height="50" relative="1" as="geometry">
            <mxPoint x="390" y="320" as="sourcePoint" />
            <mxPoint x="440" y="270" as="targetPoint" />
          </mxGeometry>
        </mxCell>
        <mxCell id="UrdU0xNyHuRj9MzuBO23-21" value="Система" style="shape=umlActor;verticalLabelPosition=bottom;verticalAlign=top;html=1;outlineConnect=0;" vertex="1" parent="1">
          <mxGeometry x="570" y="120" width="30" height="60" as="geometry" />
        </mxCell>
        <mxCell id="UrdU0xNyHuRj9MzuBO23-22" value="" style="shape=flexArrow;endArrow=classic;html=1;rounded=0;" edge="1" parent="1" target="UrdU0xNyHuRj9MzuBO23-15">
          <mxGeometry width="50" height="50" relative="1" as="geometry">
            <mxPoint x="585" y="200" as="sourcePoint" />
            <mxPoint x="590" y="200" as="targetPoint" />
          </mxGeometry>
        </mxCell>
        <mxCell id="UrdU0xNyHuRj9MzuBO23-23" value="" style="endArrow=none;html=1;rounded=0;exitX=1;exitY=0.5;exitDx=0;exitDy=0;" edge="1" parent="1" source="UrdU0xNyHuRj9MzuBO23-5" target="UrdU0xNyHuRj9MzuBO23-15">
          <mxGeometry width="50" height="50" relative="1" as="geometry">
            <mxPoint x="390" y="320" as="sourcePoint" />
            <mxPoint x="440" y="270" as="targetPoint" />
          </mxGeometry>
        </mxCell>
        <mxCell id="UrdU0xNyHuRj9MzuBO23-24" value="" style="endArrow=none;html=1;rounded=0;entryX=0.5;entryY=0.5;entryDx=0;entryDy=0;entryPerimeter=0;exitX=1;exitY=0.5;exitDx=0;exitDy=0;" edge="1" parent="1" source="UrdU0xNyHuRj9MzuBO23-2" target="UrdU0xNyHuRj9MzuBO23-21">
          <mxGeometry width="50" height="50" relative="1" as="geometry">
            <mxPoint x="390" y="320" as="sourcePoint" />
            <mxPoint x="440" y="270" as="targetPoint" />
          </mxGeometry>
        </mxCell>
        <mxCell id="UrdU0xNyHuRj9MzuBO23-25" value="" style="endArrow=none;html=1;rounded=0;exitX=1;exitY=0.5;exitDx=0;exitDy=0;" edge="1" parent="1" source="UrdU0xNyHuRj9MzuBO23-3" target="UrdU0xNyHuRj9MzuBO23-21">
          <mxGeometry width="50" height="50" relative="1" as="geometry">
            <mxPoint x="390" y="320" as="sourcePoint" />
            <mxPoint x="440" y="270" as="targetPoint" />
          </mxGeometry>
        </mxCell>
        <mxCell id="UrdU0xNyHuRj9MzuBO23-26" value="" style="endArrow=none;html=1;rounded=0;exitX=1;exitY=0.5;exitDx=0;exitDy=0;" edge="1" parent="1" source="UrdU0xNyHuRj9MzuBO23-4" target="UrdU0xNyHuRj9MzuBO23-21">
          <mxGeometry width="50" height="50" relative="1" as="geometry">
            <mxPoint x="390" y="320" as="sourcePoint" />
            <mxPoint x="440" y="270" as="targetPoint" />
          </mxGeometry>
        </mxCell>
      </root>
    </mxGraphModel>
  </diagram>
</mxfile>
